<svg width="30" height="30" viewBox="0 0 30 30" fill="none" xmlns="http://www.w3.org/2000/svg">
<path d="M22.375 15.6754C22.3443 12.3078 25.1722 10.6694 25.3015 10.5932C23.7 8.29132 21.2176 7.97681 20.3453 7.95174C18.2604 7.73545 16.238 9.18155 15.176 9.18155C14.0928 9.18155 12.4573 7.97264 10.6946 8.00816C8.42637 8.04264 6.30439 9.33723 5.14059 11.3476C2.73879 15.4466 4.53007 21.4702 6.83117 24.7835C7.98226 26.4062 9.32731 28.218 11.0879 28.1543C12.8102 28.0843 13.4536 27.0718 15.5321 27.0718C17.5916 27.0718 18.1957 28.1543 19.9913 28.1135C21.8398 28.0843 23.0036 26.4835 24.1144 24.8462C25.4446 22.9863 25.9788 21.1547 26 21.0607C25.9565 21.046 22.41 19.7117 22.375 15.6754Z" fill="black"/>
<path d="M18.9832 5.77247C19.9096 4.63043 20.5435 3.07671 20.3675 1.5C19.0267 1.55851 17.3499 2.41426 16.3843 3.53122C15.53 4.51549 14.7668 6.12877 14.964 7.64592C16.4701 7.75667 18.0166 6.89675 18.9832 5.77247Z" fill="black"/>
</svg>
