<svg width="20" height="20" viewBox="0 0 20 20" fill="none" xmlns="http://www.w3.org/2000/svg">
  <g opacity="0.6" clip-path="url(#clip0_2075_11908)">
    <path fill-rule="evenodd" clip-rule="evenodd" d="M9.86394 1.09286L9.86394 5.26876L8.92124 4.39018C8.48173 3.96339 7.76914 3.96339 7.32963 4.39018C6.89012 4.81696 6.89012 5.50894 7.32963 5.93572L10.1847 8.67129L10.1892 8.6756C10.3932 8.87589 10.6763 9 10.9894 9L11 8.99995L11.0106 9C11.3237 9 11.6068 8.87589 11.8108 8.6756L11.8153 8.67129L14.6704 5.93572C15.1099 5.50894 15.1099 4.81696 14.6704 4.39018C14.2309 3.96339 13.5183 3.96339 13.0788 4.39018L12.1361 5.26876V1.09286C12.1361 0.489287 11.6322 0 11.0106 0L11 4.78506e-05L10.9894 0C10.3678 0 9.86394 0.489287 9.86394 1.09286ZM0 6.2C0 5.53726 0.526179 5 1.17526 5H2.54639C2.67599 5 2.80066 5.02142 2.91725 5.06097C3.30261 5.17225 3.62244 5.4819 3.73363 5.90557L6.12023 14H6.46124L6.46392 14H15L15.6907 14L16.0213 14H16.0899L17.3614 9.84831C17.5465 9.24366 18.1773 8.89423 18.7881 9.0579C19.4302 9.22996 19.8016 9.90033 19.607 10.536L18.1521 15.2867C18.1282 15.3648 18.0969 15.4386 18.0591 15.5076C17.9271 16.003 17.5095 16.3415 17.0362 16.3875C16.9807 16.3957 16.9238 16.4 16.866 16.4H15.6934L15.6907 16.4L6.46392 16.4L5.28866 16.4C5.23747 16.4 5.18702 16.3967 5.13754 16.3902C4.64974 16.3567 4.21483 16.0122 4.08124 15.5031L1.69235 7.4H1.17526C0.526179 7.4 0 6.86274 0 6.2ZM5.48454 20C6.24179 20 6.85567 19.3732 6.85567 18.6C6.85567 17.8268 6.24179 17.2 5.48454 17.2C4.72728 17.2 4.1134 17.8268 4.1134 18.6C4.1134 19.3732 4.72728 20 5.48454 20ZM18.0412 18.6C18.0412 19.3732 17.4274 20 16.6701 20C15.9128 20 15.299 19.3732 15.299 18.6C15.299 17.8268 15.9128 17.2 16.6701 17.2C17.4274 17.2 18.0412 17.8268 18.0412 18.6Z" fill="white" />
  </g>
  <defs>
    <clipPath id="clip0_2075_11908">
      <rect width="20" height="20" fill="white" />
    </clipPath>
  </defs>
</svg>