<svg width="20" height="20" viewBox="0 0 20 20" fill="none" xmlns="http://www.w3.org/2000/svg">
  <g opacity="0.6" clip-path="url(#clip0_1489_10020)">
    <path fill-rule="evenodd" clip-rule="evenodd" d="M12.9545 7.72727C12.9545 10.6142 10.6142 12.9545 7.72727 12.9545C4.84033 12.9545 2.5 10.6142 2.5 7.72727C2.5 4.84033 4.84033 2.5 7.72727 2.5C10.6142 2.5 12.9545 4.84033 12.9545 7.72727ZM15.4545 7.72727C15.4545 11.9949 11.9949 15.4545 7.72727 15.4545C3.45962 15.4545 0 11.9949 0 7.72727C0 3.45962 3.45962 0 7.72727 0C11.9949 0 15.4545 3.45962 15.4545 7.72727ZM16.5257 11.0717C16.874 10.2241 17.1093 9.31804 17.2127 8.37236C18.895 9.51755 19.9997 11.448 19.9997 13.6365C19.9997 17.1511 17.1506 20.0002 13.6361 20.0002C11.4476 20.0002 9.5171 18.8954 8.37191 17.2132C9.31759 17.1097 10.2236 16.8745 11.0713 16.5261C11.7535 17.1321 12.6518 17.5002 13.6361 17.5002C15.7699 17.5002 17.4997 15.7704 17.4997 13.6365C17.4997 12.6523 17.1317 11.7539 16.5257 11.0717Z" fill="white" />
  </g>
  <defs>
    <clipPath id="clip0_1489_10020">
      <rect width="20" height="20" fill="white" />
    </clipPath>
  </defs>
</svg>