<svg width="50" height="50" viewBox="0 0 50 50" fill="none" xmlns="http://www.w3.org/2000/svg">
  <circle cx="25" cy="25" r="23.7" stroke="#5A536D" stroke-width="2.6" />
  <circle cx="25" cy="25" r="12.7" stroke="#5A536D" stroke-width="2.6" />
  <path fill-rule="evenodd" clip-rule="evenodd" d="M25.0002 6C24.2822 6 23.7002 6.58203 23.7002 7.3V10.7C23.7002 11.418 24.2822 12 25.0002 12C25.7182 12 26.3002 11.418 26.3002 10.7V7.3C26.3002 6.58203 25.7182 6 25.0002 6ZM25.0002 38C24.2822 38 23.7002 38.582 23.7002 39.3V42.7C23.7002 43.418 24.2822 44 25.0002 44C25.7182 44 26.3002 43.418 26.3002 42.7V39.3C26.3002 38.582 25.7182 38 25.0002 38ZM44 25.0002C44 24.2822 43.418 23.7002 42.7 23.7002H39.3C38.582 23.7002 38 24.2822 38 25.0002C38 25.7182 38.582 26.3002 39.3 26.3002H42.7C43.418 26.3002 44 25.7182 44 25.0002ZM12 25.0002C12 24.2822 11.418 23.7002 10.7 23.7002H7.3C6.58203 23.7002 6 24.2822 6 25.0002C6 25.7182 6.58203 26.3002 7.3 26.3002H10.7C11.418 26.3002 12 25.7182 12 25.0002ZM38.4354 11.5647C37.9277 11.0571 37.1046 11.0571 36.5969 11.5647L34.1927 13.9689C33.685 14.4766 33.685 15.2997 34.1927 15.8074C34.7004 16.3151 35.5235 16.3151 36.0312 15.8074L38.4354 13.4032C38.943 12.8955 38.943 12.0724 38.4354 11.5647ZM15.8079 34.1917C15.3002 33.684 14.4771 33.684 13.9694 34.1917L11.5653 36.5959C11.0576 37.1035 11.0576 37.9267 11.5653 38.4343C12.073 38.942 12.8961 38.942 13.4038 38.4343L15.8079 36.0302C16.3156 35.5225 16.3156 34.6994 15.8079 34.1917ZM38.4348 38.4349C38.9424 37.9272 38.9424 37.1041 38.4348 36.5964L36.0306 34.1922C35.5229 33.6845 34.6998 33.6845 34.1921 34.1922C33.6844 34.6999 33.6844 35.523 34.1921 36.0307L36.5963 38.4349C37.104 38.9425 37.9271 38.9425 38.4348 38.4349ZM15.8073 15.8079C16.315 15.3002 16.315 14.4771 15.8073 13.9694L13.4032 11.5653C12.8955 11.0576 12.0724 11.0576 11.5647 11.5653C11.057 12.073 11.057 12.8961 11.5647 13.4037L13.9688 15.8079C14.4765 16.3156 15.2996 16.3156 15.8073 15.8079Z" fill="#5A536D" />
</svg>