<svg width="20" height="20" viewBox="0 0 20 20" fill="none" xmlns="http://www.w3.org/2000/svg">
  <g opacity="0.6">
    <path d="M2.12461 18.5H6.89288C7.04088 18.5008 7.1876 18.474 7.32461 18.4211C7.46163 18.3683 7.58625 18.2904 7.69134 18.192L15.4735 10.8315L18.6673 7.87884C18.7728 7.7801 18.8564 7.66263 18.9135 7.53321C18.9706 7.40378 19 7.26495 19 7.12474C19 6.98453 18.9706 6.84571 18.9135 6.71628C18.8564 6.58685 18.7728 6.46938 18.6673 6.37064L13.8991 1.81417C13.7945 1.71462 13.6702 1.63561 13.5331 1.58168C13.3961 1.52776 13.2491 1.5 13.1006 1.5C12.9522 1.5 12.8052 1.52776 12.6681 1.58168C12.5311 1.63561 12.4067 1.71462 12.3022 1.81417L9.13081 4.81995L1.32615 12.1804C1.22192 12.2796 1.13946 12.3973 1.0835 12.5268C1.02753 12.6562 0.999163 12.7947 1.00002 12.9345V17.4379C1.00002 17.7196 1.1185 17.9897 1.3294 18.1889C1.54031 18.3881 1.82635 18.5 2.12461 18.5ZM13.1006 4.06585L16.2832 7.07163L14.6863 8.57984L11.5037 5.57405L13.1006 4.06585ZM3.2492 13.37L9.91803 7.07163L13.1006 10.0774L6.4318 16.3758H3.2492V13.37Z" fill="white" />
  </g>
</svg>