<svg width="21" height="20" viewBox="0 0 21 20" fill="none" xmlns="http://www.w3.org/2000/svg">
  <g opacity="0.6" clip-path="url(#clip0_1489_10023)">
    <path fill-rule="evenodd" clip-rule="evenodd" d="M16.2857 6.00111H4.64582L6.62202 4.04834C7.09623 3.57976 7.09623 2.82003 6.62202 2.35144C6.14782 1.88285 5.37896 1.88285 4.90475 2.35144L0.865234 6.34308L0.860442 6.34784C0.637902 6.56534 0.5 6.86726 0.5 7.201C0.5 7.86368 1.04365 8.40089 1.71429 8.40089H16.2857C16.9563 8.40089 17.5 7.86368 17.5 7.201C17.5 6.53831 16.9563 6.00111 16.2857 6.00111ZM4.71429 13.9989H16.3542L14.378 15.9517C13.9038 16.4202 13.9038 17.18 14.378 17.6486C14.8522 18.1171 15.621 18.1171 16.0953 17.6486L20.1348 13.6569L20.1399 13.6518C20.3623 13.4343 20.5 13.1326 20.5 12.799C20.5 12.1363 19.9563 11.5991 19.2857 11.5991H4.71429C4.04365 11.5991 3.5 12.1363 3.5 12.799C3.5 13.4617 4.04365 13.9989 4.71429 13.9989Z" fill="white" />
  </g>
  <defs>
    <clipPath id="clip0_1489_10023">
      <rect width="20" height="20" fill="white" transform="translate(0.5)" />
    </clipPath>
  </defs>
</svg>