<svg width="17" height="16" viewBox="0 0 17 16" fill="none" xmlns="http://www.w3.org/2000/svg">
  <path d="M15.26 8C15.9448 8 16.5098 7.44154 16.4041 6.76492C16.193 5.41379 15.6377 4.13201 14.7825 3.04725C13.6701 1.63607 12.1149 0.640531 10.3676 0.221041C8.62026 -0.198449 6.78261 -0.0174567 5.15072 0.734854C3.51883 1.48717 2.18775 2.76698 1.37195 4.36808C0.556149 5.96917 0.30315 7.7983 0.653718 9.56072C1.00429 11.3231 1.938 12.9162 3.30441 14.0832C4.67083 15.2503 6.39035 15.9233 8.18592 15.9938C9.56615 16.0481 10.9295 15.7439 12.1467 15.1205C12.7563 14.8083 12.876 14.023 12.4734 13.469C12.0709 12.9149 11.2981 12.8073 10.6683 13.0763C9.92033 13.3958 9.10615 13.5481 8.28328 13.5157C7.04434 13.4671 5.85787 13.0027 4.91505 12.1974C3.97222 11.3922 3.32796 10.293 3.08607 9.0769C2.84417 7.86083 3.01874 6.59873 3.58164 5.49397C4.14455 4.38922 5.06299 3.50614 6.189 2.98705C7.315 2.46795 8.58298 2.34307 9.78862 2.63252C10.9943 2.92197 12.0673 3.60889 12.8349 4.5826C13.3448 5.22931 13.7001 5.97751 13.8813 6.77037C14.0339 7.438 14.5752 8 15.26 8Z" fill="white" />
</svg>