<svg width="26" height="14" viewBox="0 0 26 14" fill="none" xmlns="http://www.w3.org/2000/svg">
  <path fill-rule="evenodd" clip-rule="evenodd" d="M23 5C24.3809 5 25.5 3.88074 25.5 2.5C25.5 1.11926 24.3809 0 23 0C21.6191 0 20.5 1.11926 20.5 2.5C20.5 2.78351 20.5469 3.05603 20.6338 3.31006L16.8096 7.51898C16.708 7.50647 16.6045 7.5 16.5 7.5C16.2607 7.5 16.0303 7.53357 15.8115 7.59613L15.2695 6.98486C15.2432 6.94696 15.2139 6.91052 15.1816 6.87561L13.9482 5.36371L13.124 4.43353L13.0801 4.38751L12.9033 4.18927C12.9238 4.1181 12.9414 4.04565 12.9551 3.97205C12.9844 3.81921 13 3.66138 13 3.5C13 2.11926 11.8809 1 10.5 1C9.11914 1 8 2.11926 8 3.5C8 3.72815 8.03027 3.94916 8.08789 4.15918L3.61914 9.07733C3.4209 9.02686 3.21387 9 3 9C1.61914 9 0.5 10.1193 0.5 11.5C0.5 12.8807 1.61914 14 3 14C4.38086 14 5.5 12.8807 5.5 11.5C5.5 11.1755 5.43848 10.8655 5.32617 10.581L9.62988 5.84436C9.90137 5.94501 10.1943 6 10.5 6C10.7998 6 11.0879 5.94714 11.3545 5.85034L11.5 6.01514C11.5264 6.05304 11.5557 6.08948 11.5879 6.12439L12.8213 7.63654L13.6455 8.56647L13.6895 8.61249L14.1533 9.1347C14.0537 9.40436 14 9.6958 14 10C14 11.3807 15.1191 12.5 16.5 12.5C17.8809 12.5 19 11.3807 19 10C19 9.57214 18.8926 9.16937 18.7031 8.81726L22.2695 4.89166C22.501 4.9621 22.7461 5 23 5Z" fill="white" />
</svg>