<svg width="42" height="39" viewBox="0 0 42 39" fill="none" xmlns="http://www.w3.org/2000/svg">
  <path d="M39.0209 1L23.3954 12.5617L26.3011 5.74803L39.0209 1Z" fill="#E17726" stroke="#E17726" stroke-width="0.25" stroke-linecap="round" stroke-linejoin="round" />
  <path d="M2.97754 1L18.4639 12.6697L15.6974 5.74802L2.97754 1Z" fill="#E27625" stroke="#E27625" stroke-width="0.25" stroke-linecap="round" stroke-linejoin="round" />
  <path d="M33.3939 27.8081L29.2365 34.1594L38.1388 36.6105L40.689 27.9469L33.3939 27.8081Z" fill="#E27625" stroke="#E27625" stroke-width="0.25" stroke-linecap="round" stroke-linejoin="round" />
  <path d="M1.32513 27.9469L3.85981 36.6105L12.7467 34.1594L8.60463 27.8081L1.32513 27.9469Z" fill="#E27625" stroke="#E27625" stroke-width="0.25" stroke-linecap="round" stroke-linejoin="round" />
  <path d="M12.2667 17.0776L9.79388 20.8082L18.6035 21.209L18.3098 11.7284L12.2667 17.0776Z" fill="#E27625" stroke="#E27625" stroke-width="0.25" stroke-linecap="round" stroke-linejoin="round" />
  <path d="M29.7321 17.0777L23.5964 11.6206L23.3954 21.2092L32.205 20.8084L29.7321 17.0777Z" fill="#E27625" stroke="#E27625" stroke-width="0.25" stroke-linecap="round" stroke-linejoin="round" />
  <path d="M12.7444 34.1585L18.0765 31.5841L13.4863 28.0077L12.7444 34.1585Z" fill="#E27625" stroke="#E27625" stroke-width="0.25" stroke-linecap="round" stroke-linejoin="round" />
  <path d="M23.9219 31.5841L29.2385 34.1585L28.512 28.0077L23.9219 31.5841Z" fill="#E27625" stroke="#E27625" stroke-width="0.25" stroke-linecap="round" stroke-linejoin="round" />
  <path d="M29.2385 34.1597L23.9219 31.5853L24.3546 35.0384L24.3082 36.5029L29.2385 34.1597Z" fill="#D5BFB2" stroke="#D5BFB2" stroke-width="0.25" stroke-linecap="round" stroke-linejoin="round" />
  <path d="M12.7444 34.1597L17.6902 36.5029L17.6593 35.0384L18.0765 31.5853L12.7444 34.1597Z" fill="#D5BFB2" stroke="#D5BFB2" stroke-width="0.25" stroke-linecap="round" stroke-linejoin="round" />
  <path d="M17.785 25.7257L13.3647 24.4309L16.4867 22.9972L17.785 25.7257Z" fill="#233447" stroke="#233447" stroke-width="0.25" stroke-linecap="round" stroke-linejoin="round" />
  <path d="M24.2144 25.7257L25.5127 22.9972L28.6501 24.4309L24.2144 25.7257Z" fill="#233447" stroke="#233447" stroke-width="0.25" stroke-linecap="round" stroke-linejoin="round" />
  <path d="M12.7449 34.1594L13.5177 27.8081L8.60291 27.9469L12.7449 34.1594Z" fill="#CC6228" stroke="#CC6228" stroke-width="0.25" stroke-linecap="round" stroke-linejoin="round" />
  <path d="M28.4801 27.8081L29.2375 34.1594L33.3949 27.9469L28.4801 27.8081Z" fill="#CC6228" stroke="#CC6228" stroke-width="0.25" stroke-linecap="round" stroke-linejoin="round" />
  <path d="M32.205 20.809L23.3954 21.2098L24.2145 25.7267L25.5129 22.998L28.6503 24.4317L32.205 20.809Z" fill="#CC6228" stroke="#CC6228" stroke-width="0.25" stroke-linecap="round" stroke-linejoin="round" />
  <path d="M13.3641 24.4317L16.4861 22.998L17.7844 25.7267L18.6035 21.2098L9.79388 20.809L13.3641 24.4317Z" fill="#CC6228" stroke="#CC6228" stroke-width="0.25" stroke-linecap="round" stroke-linejoin="round" />
  <path d="M9.79388 20.809L13.4878 28.0081L13.364 24.4317L9.79388 20.809Z" fill="#E27525" stroke="#E27525" stroke-width="0.25" stroke-linecap="round" stroke-linejoin="round" />
  <path d="M28.6506 24.4317L28.5115 28.0081L32.2054 20.809L28.6506 24.4317Z" fill="#E27525" stroke="#E27525" stroke-width="0.25" stroke-linecap="round" stroke-linejoin="round" />
  <path d="M18.6025 21.2092L17.7833 25.7261L18.8188 31.0598L19.0507 24.0303L18.6025 21.2092Z" fill="#E27525" stroke="#E27525" stroke-width="0.25" stroke-linecap="round" stroke-linejoin="round" />
  <path d="M23.3947 21.2092L22.9619 24.015L23.1783 31.0598L24.2138 25.7261L23.3947 21.2092Z" fill="#E27525" stroke="#E27525" stroke-width="0.25" stroke-linecap="round" stroke-linejoin="round" />
  <path d="M24.2143 25.7264L23.1788 31.0601L23.9207 31.5843L28.511 28.0078L28.65 24.4314L24.2143 25.7264Z" fill="#F5841F" stroke="#F5841F" stroke-width="0.25" stroke-linecap="round" stroke-linejoin="round" />
  <path d="M13.3647 24.4314L13.4884 28.0078L18.0786 31.5843L18.8205 31.0601L17.785 25.7264L13.3647 24.4314Z" fill="#F5841F" stroke="#F5841F" stroke-width="0.25" stroke-linecap="round" stroke-linejoin="round" />
  <path d="M24.3051 36.5013L24.3514 35.0368L23.9496 34.6976H18.0457L17.6593 35.0368L17.6902 36.5013L12.7444 34.1581L14.4754 35.5763L17.9838 37.9966H23.9959L27.5198 35.5763L29.2353 34.1581L24.3051 36.5013Z" fill="#C0AC9D" stroke="#C0AC9D" stroke-width="0.25" stroke-linecap="round" stroke-linejoin="round" />
  <path d="M23.9211 31.5852L23.1792 31.0612H18.8208L18.079 31.5852L17.6617 35.0384L18.0481 34.6992H23.952L24.3539 35.0384L23.9211 31.5852Z" fill="#161616" stroke="#161616" stroke-width="0.25" stroke-linecap="round" stroke-linejoin="round" />
  <path d="M39.6863 13.3171L41.0001 6.93503L39.0218 1L23.9219 12.1764L29.733 17.0785L37.9399 19.468L39.7482 17.3561L38.96 16.7856L40.2118 15.6449L39.2536 14.905L40.5055 13.9492L39.6863 13.3171Z" fill="#763E1A" stroke="#763E1A" stroke-width="0.25" stroke-linecap="round" stroke-linejoin="round" />
  <path d="M1 6.93503L2.32917 13.3171L1.47912 13.9492L2.74646 14.905L1.78823 15.6449L3.04011 16.7856L2.25188 17.3561L4.06017 19.468L12.2671 17.0785L18.0782 12.1764L2.9783 1L1 6.93503Z" fill="#763E1A" stroke="#763E1A" stroke-width="0.25" stroke-linecap="round" stroke-linejoin="round" />
  <path d="M37.9393 19.4679L29.7325 17.0785L32.2054 20.8091L28.5115 28.0082L33.3954 27.9465H40.6904L37.9393 19.4679Z" fill="#F5841F" stroke="#F5841F" stroke-width="0.25" stroke-linecap="round" stroke-linejoin="round" />
  <path d="M12.2675 17.0785L4.06074 19.4679L1.32513 27.9465H8.60463L13.4885 28.0082L9.7947 20.8091L12.2675 17.0785Z" fill="#F5841F" stroke="#F5841F" stroke-width="0.25" stroke-linecap="round" stroke-linejoin="round" />
  <path d="M23.3955 21.2108L23.921 12.1772L26.301 5.7489H15.6987L18.0788 12.1772L18.6042 21.2108L18.8052 24.0473L18.8206 31.0615H23.1791L23.1945 24.0473L23.3955 21.2108Z" fill="#F5841F" stroke="#F5841F" stroke-width="0.25" stroke-linecap="round" stroke-linejoin="round" />
</svg>