<svg width="20" height="20" viewBox="0 0 20 20" fill="none" xmlns="http://www.w3.org/2000/svg">
  <circle cx="10" cy="10" r="10" fill="#15121E" />
  <path d="M16.8355 6.52961C18.0656 7.29326 19.4402 6.19684 18.5432 4.55069C16.7431 1.81119 13.6266 0 10.0819 0C4.56157 0 0.0769798 4.39491 0 9.84644C0.0135866 9.63343 0.0564844 9.43029 0.126257 9.23668C0.069333 9.41104 0.0339562 9.593 0.0218502 9.7828C0.0186768 9.83176 0.0186768 9.88046 0.0186768 9.9296C0.0186768 14.952 3.75841 19.109 8.62903 19.8162C9.08099 19.9361 9.55818 20 10.0578 20C13.9507 20 17.3293 17.8133 19.009 14.6159C19.2431 13.9683 18.7997 13.7059 18.3956 13.9774C18.3941 13.9789 18.3926 13.9797 18.3912 13.9804C18.3897 13.9812 18.3882 13.982 18.3867 13.9836C18.2355 14.0936 18.0442 14.1728 17.8101 14.2065C16.7755 14.3629 16.166 13.6146 15.3455 12.6072C15.269 12.5133 15.1907 12.4171 15.11 12.3193C14.2406 11.2654 12.7303 11.1891 11.402 11.1891C10.0733 11.1891 8.56322 11.2654 7.69079 12.3193C7.60846 12.4191 7.52861 12.5172 7.45068 12.6129C6.63285 13.6174 6.02609 14.3626 4.9906 14.2065C4.28994 14.1013 3.99014 13.6131 3.86869 13.0323C3.85429 12.8237 3.84699 12.6139 3.84699 12.4032C3.84699 12.3895 3.84627 12.3765 3.84554 12.3636C3.84482 12.3506 3.84409 12.3376 3.84409 12.3239C3.78506 10.7725 4.21385 7.64486 6.03869 6.46607C6.3304 6.27783 6.70835 6.1352 7.15554 6.02722C7.42431 5.99374 7.69534 5.96381 7.96763 5.93729C7.97688 5.93415 7.98921 5.93415 7.99846 5.93415C8.84306 5.82122 9.8419 5.78142 10.9146 5.7754C11.0874 5.77226 11.2567 5.77226 11.4261 5.77226C13.7748 5.77226 15.8244 5.87629 16.8355 6.52961Z" fill="#5A536D" />
  <path d="M15.7109 8.12103C15.7109 8.45892 15.4337 8.73383 15.0922 8.73383C14.7511 8.73383 14.4739 8.45892 14.4739 8.12103C14.4739 7.78287 14.7511 7.50751 15.0922 7.50751C15.4337 7.50751 15.7109 7.78287 15.7109 8.12103Z" fill="#5A536D" />
  <path d="M8.0048 10.4102C8.0048 10.7209 7.78326 10.9756 7.51101 10.9756C7.24002 10.9756 7.01685 10.7209 7.01685 10.4102V9.80468H6.40482C6.09119 9.80468 5.83386 9.58466 5.83386 9.31522C5.83386 9.04624 6.09119 8.82568 6.40482 8.82568H7.01685V8.22073C7.01685 7.90988 7.24002 7.65527 7.51101 7.65527C7.78326 7.65527 8.0048 7.90988 8.0048 8.22073V8.82568H8.61493C8.9282 8.82568 9.18552 9.04624 9.18552 9.31522C9.18552 9.58466 8.9282 9.80468 8.61493 9.80468H8.0048V10.4102Z" fill="#5A536D" />
  <path d="M16.2971 8.7016C15.9558 8.7016 15.6783 8.97687 15.6783 9.31503C15.6783 9.6531 15.9558 9.9281 16.2971 9.9281C16.6384 9.9281 16.9159 9.6531 16.9159 9.31503C16.9159 8.97687 16.6384 8.7016 16.2971 8.7016Z" fill="#5A536D" />
  <path d="M14.4739 10.5479C14.4739 10.2101 14.7511 9.93506 15.0922 9.93506C15.4337 9.93506 15.7109 10.2101 15.7109 10.5479C15.7109 10.886 15.4337 11.161 15.0922 11.161C14.7511 11.161 14.4739 10.886 14.4739 10.5479Z" fill="#5A536D" />
  <path d="M13.8476 8.7016C13.5067 8.7016 13.2295 8.97687 13.2295 9.31503C13.2295 9.6531 13.5067 9.9281 13.8476 9.9281C14.1895 9.9281 14.4673 9.6531 14.4673 9.31503C14.4673 8.97687 14.1895 8.7016 13.8476 8.7016Z" fill="#5A536D" />
</svg>