<svg width="20" height="20" viewBox="0 0 20 20" fill="none" xmlns="http://www.w3.org/2000/svg">
  <g opacity="0.6">
    <path fill-rule="evenodd" clip-rule="evenodd" d="M2.7 3.2V6.8H6.3V3.2H2.7ZM2.5 1C1.39543 1 0.5 1.89543 0.5 3V7C0.5 8.10457 1.39543 9 2.5 9H6.5C7.60457 9 8.5 8.10457 8.5 7V3C8.5 1.89543 7.60457 1 6.5 1H2.5Z" fill="white" />
    <path fill-rule="evenodd" clip-rule="evenodd" d="M12.7 3.2V6.8H16.3V3.2H12.7ZM12.5 1C11.3954 1 10.5 1.89543 10.5 3V7C10.5 8.10457 11.3954 9 12.5 9H16.5C17.6046 9 18.5 8.10457 18.5 7V3C18.5 1.89543 17.6046 1 16.5 1H12.5Z" fill="white" />
    <path fill-rule="evenodd" clip-rule="evenodd" d="M2.7 13.2V16.8H6.3V13.2H2.7ZM2.5 11C1.39543 11 0.5 11.8954 0.5 13V17C0.5 18.1046 1.39543 19 2.5 19H6.5C7.60457 19 8.5 18.1046 8.5 17V13C8.5 11.8954 7.60457 11 6.5 11H2.5Z" fill="white" />
    <path fill-rule="evenodd" clip-rule="evenodd" d="M12.7 13.2V16.8H16.3V13.2H12.7ZM12.5 11C11.3954 11 10.5 11.8954 10.5 13V17C10.5 18.1046 11.3954 19 12.5 19H16.5C17.6046 19 18.5 18.1046 18.5 17V13C18.5 11.8954 17.6046 11 16.5 11H12.5Z" fill="white" />
  </g>
</svg>