<svg width="30" height="30" viewBox="0 0 30 30" fill="none" xmlns="http://www.w3.org/2000/svg">
<path d="M4.01427 3.36911C3.71295 3.65516 3.53857 4.1005 3.53857 4.67724V25.2492C3.53857 25.8259 3.71295 26.2713 4.01427 26.5573L4.08864 26.6201L16.8005 15.0969V14.8248L4.08864 3.30167L4.01427 3.36911Z" fill="url(#paint0_linear_1716_12625)"/>
<path d="M21.0334 18.9404L16.8008 15.0974V14.8253L21.0385 10.9823L21.1334 11.0323L26.152 13.6219C27.5842 14.3567 27.5842 15.566 26.152 16.3056L21.1334 18.8904L21.0334 18.9404Z" fill="url(#paint1_linear_1716_12625)"/>
<path d="M21.1335 18.8897L16.8009 14.9607L4.01465 26.5571C4.49035 27.0106 5.26609 27.0652 6.14825 26.6118L21.1335 18.8897Z" fill="url(#paint2_linear_1716_12625)"/>
<path d="M21.1335 11.0319L6.14825 3.30985C5.26609 2.86102 4.49035 2.91567 4.01465 3.36915L16.8009 14.9609L21.1335 11.0319Z" fill="url(#paint3_linear_1716_12625)"/>
<defs>
<linearGradient id="paint0_linear_1716_12625" x1="15.6719" y1="25.4634" x2="0.134745" y2="8.33049" gradientUnits="userSpaceOnUse">
<stop stop-color="#00A0FF"/>
<stop offset="0.0066" stop-color="#00A1FF"/>
<stop offset="0.2601" stop-color="#00BEFF"/>
<stop offset="0.5122" stop-color="#00D2FF"/>
<stop offset="0.7604" stop-color="#00DFFF"/>
<stop offset="1" stop-color="#00E3FF"/>
</linearGradient>
<linearGradient id="paint1_linear_1716_12625" x1="28.017" y1="14.9601" x2="3.1965" y2="14.9601" gradientUnits="userSpaceOnUse">
<stop stop-color="#FFE000"/>
<stop offset="0.4087" stop-color="#FFBD00"/>
<stop offset="0.7754" stop-color="#FFA500"/>
<stop offset="1" stop-color="#FF9C00"/>
</linearGradient>
<linearGradient id="paint2_linear_1716_12625" x1="18.7775" y1="12.8248" x2="-2.29204" y2="-10.4089" gradientUnits="userSpaceOnUse">
<stop stop-color="#FF3A44"/>
<stop offset="1" stop-color="#C31162"/>
</linearGradient>
<linearGradient id="paint3_linear_1716_12625" x1="0.796088" y1="33.4016" x2="10.2046" y2="23.0268" gradientUnits="userSpaceOnUse">
<stop stop-color="#32A071"/>
<stop offset="0.0685" stop-color="#2DA771"/>
<stop offset="0.4762" stop-color="#15CF74"/>
<stop offset="0.8009" stop-color="#06E775"/>
<stop offset="1" stop-color="#00F076"/>
</linearGradient>
</defs>
</svg>
