<svg width="30" height="30" viewBox="0 0 30 30" fill="none" xmlns="http://www.w3.org/2000/svg">
  <path d="M5 3.75C4.31 3.75 3.75 4.31 3.75 5V10C3.75 10.69 4.31 11.25 5 11.25H10C10.69 11.25 11.25 10.69 11.25 10V5C11.25 4.31 10.69 3.75 10 3.75H5ZM13.75 3.75V6.25H16.25V3.75H13.75ZM20 3.75C19.31 3.75 18.75 4.31 18.75 5V10C18.75 10.69 19.31 11.25 20 11.25H25C25.69 11.25 26.25 10.69 26.25 10V5C26.25 4.31 25.69 3.75 25 3.75H20ZM6.25 6.25H8.75V8.75H6.25V6.25ZM21.25 6.25H23.75V8.75H21.25V6.25ZM13.75 8.75V11.25H16.25V8.75H13.75ZM3.75 13.75V16.25H6.25V13.75H3.75ZM8.75 13.75V16.25H11.25V13.75H8.75ZM13.75 13.75V16.25H16.25V13.75H13.75ZM16.25 16.25V18.75H18.75V16.25H16.25ZM18.75 16.25H21.25V13.75H18.75V16.25ZM21.25 16.25V18.75H23.75V16.25H21.25ZM23.75 16.25H26.25V13.75H23.75V16.25ZM23.75 18.75V21.25H26.25V18.75H23.75ZM23.75 21.25H21.25V23.75H23.75V21.25ZM23.75 23.75V26.25H26.25V23.75H23.75ZM21.25 23.75H18.75V26.25H21.25V23.75ZM18.75 23.75V21.25H16.25V23.75H18.75ZM16.25 23.75H13.75V26.25H16.25V23.75ZM16.25 21.25V18.75H13.75V21.25H16.25ZM18.75 21.25H21.25V18.75H18.75V21.25ZM5 18.75C4.31 18.75 3.75 19.31 3.75 20V25C3.75 25.69 4.31 26.25 5 26.25H10C10.69 26.25 11.25 25.69 11.25 25V20C11.25 19.31 10.69 18.75 10 18.75H5ZM6.25 21.25H8.75V23.75H6.25V21.25Z" fill="#666679" />
</svg>