<svg width="20" height="20" viewBox="0 0 20 20" fill="none" xmlns="http://www.w3.org/2000/svg">
  <g opacity="0.6" clip-path="url(#clip0_1427_10002)">
    <path d="M16.26 10C16.9448 10 17.5098 9.44154 17.4041 8.76492C17.193 7.41379 16.6377 6.13201 15.7825 5.04725C14.6701 3.63607 13.1149 2.64053 11.3676 2.22104C9.62026 1.80155 7.78261 1.98254 6.15072 2.73485C4.51883 3.48717 3.18775 4.76698 2.37195 6.36808C1.55615 7.96917 1.30315 9.7983 1.65372 11.5607C2.00429 13.3231 2.938 14.9162 4.30441 16.0832C5.67083 17.2503 7.39035 17.9233 9.18592 17.9938C10.5662 18.0481 11.9295 17.7439 13.1467 17.1205C13.7563 16.8083 13.876 16.023 13.4734 15.469C13.0709 14.9149 12.2981 14.8073 11.6683 15.0763C10.9203 15.3958 10.1061 15.5481 9.28328 15.5157C8.04434 15.4671 6.85787 15.0027 5.91505 14.1974C4.97222 13.3922 4.32796 12.293 4.08607 11.0769C3.84417 9.86083 4.01874 8.59873 4.58164 7.49397C5.14455 6.38922 6.06299 5.50614 7.189 4.98705C8.315 4.46795 9.58298 4.34307 10.7886 4.63252C11.9943 4.92197 13.0673 5.60889 13.8349 6.5826C14.3448 7.22931 14.7001 7.97751 14.8813 8.77037C15.0339 9.438 15.5752 10 16.26 10Z" fill="white" />
    <path d="M18.1688 6.99657C18.5135 6.90421 18.8289 7.21965 18.7366 7.56437L17.3066 12.9009C17.2143 13.2456 16.7834 13.3611 16.531 13.1087L12.6244 9.20211C12.3721 8.94976 12.4875 8.51886 12.8323 8.42649L18.1688 6.99657Z" fill="white" />
  </g>
  <defs>
    <clipPath id="clip0_1427_10002">
      <rect width="20" height="20" fill="white" />
    </clipPath>
  </defs>
</svg>