<svg width="39" height="40" viewBox="0 0 39 40" fill="none" xmlns="http://www.w3.org/2000/svg">
<path fill-rule="evenodd" clip-rule="evenodd" d="M30.1843 17.468C30.8675 17.468 31.4218 16.9182 31.4218 16.2424C31.4218 15.5661 30.8675 15.0154 30.1843 15.0154C29.5023 15.0154 28.9478 15.5661 28.9478 16.2424C28.9478 16.9182 29.5023 17.468 30.1843 17.468ZM15.0221 21.9513C15.5666 21.9513 16.0097 21.442 16.0097 20.8206V19.6097H17.2299C17.8564 19.6097 18.3711 19.1696 18.3711 18.6308C18.3711 18.0928 17.8564 17.6517 17.2299 17.6517H16.0097V16.4416C16.0097 15.8199 15.5666 15.3107 15.0221 15.3107C14.4801 15.3107 14.0338 15.8199 14.0338 16.4416V17.6517H12.8096C12.1824 17.6517 11.6677 18.0928 11.6677 18.6308C11.6677 19.1696 12.1824 19.6097 12.8096 19.6097H14.0338V20.8206C14.0338 21.442 14.4801 21.9513 15.0221 21.9513ZM31.3569 18.6301C31.3569 17.9538 31.9118 17.4033 32.5944 17.4033C33.2769 17.4033 33.832 17.9538 33.832 18.6301C33.832 19.3063 33.2769 19.8563 32.5944 19.8563C31.9118 19.8563 31.3569 19.3063 31.3569 18.6301ZM30.1843 19.8701C29.5023 19.8701 28.9478 20.4201 28.9478 21.0957C28.9478 21.772 29.5023 22.322 30.1843 22.322C30.8675 22.322 31.4218 21.772 31.4218 21.0957C31.4218 20.4201 30.8675 19.8701 30.1843 19.8701ZM26.4591 18.6301C26.4591 17.9538 27.0135 17.4033 27.6953 17.4033C28.3792 17.4033 28.9348 17.9538 28.9348 18.6301C28.9348 19.3063 28.3792 19.8563 27.6953 19.8563C27.0135 19.8563 26.4591 19.3063 26.4591 18.6301Z" fill="#4E4A57"/>
<path fill-rule="evenodd" clip-rule="evenodd" d="M33.6712 13.0593C36.1313 14.5866 38.8805 12.3937 37.0866 9.10143C33.4864 3.62239 27.2533 0 20.1639 0C9.12319 0 0.15396 8.78986 0 19.693C0.0271192 19.2678 0.112628 18.8623 0.251684 18.4758C0.138286 18.8238 0.0677968 19.1869 0.0436395 19.5656C0.0372925 19.6636 0.0372925 19.7609 0.0372925 19.8592C0.0372925 29.9044 7.51729 38.2187 17.2591 39.6327C18.1627 39.8723 19.1168 40 20.1156 40C27.9015 40 34.6587 35.6265 38.0181 29.2318C38.4863 27.9365 37.5996 27.4117 36.7913 27.9547C36.7882 27.9577 36.7853 27.9593 36.7825 27.9608C36.7795 27.9625 36.7765 27.964 36.7736 27.9672C36.4711 28.1872 36.0884 28.3457 35.6204 28.413C33.5512 28.7258 32.3322 27.2292 30.6911 25.2143L30.6911 25.2143C30.5381 25.0265 30.3815 24.8342 30.2202 24.6385C28.4813 22.5308 25.4607 22.3782 22.804 22.3782C20.1468 22.3782 17.1265 22.5308 15.3816 24.6385C15.217 24.8382 15.0573 25.0344 14.9014 25.2258L14.9012 25.226C13.2656 27.2349 12.0522 28.7252 9.98121 28.413C8.57978 28.2026 7.98019 27.226 7.73734 26.0644C7.70855 25.6473 7.69396 25.2277 7.69396 24.8064C7.69396 24.779 7.69251 24.7531 7.69106 24.7272L7.69106 24.7272C7.68961 24.7013 7.68816 24.6753 7.68816 24.6479C7.5701 21.545 8.42767 15.2897 12.0774 12.9321C12.6607 12.5557 13.4164 12.2705 14.3106 12.0546C14.8483 11.9876 15.3906 11.9277 15.9353 11.8746C15.9538 11.8684 15.9785 11.8684 15.997 11.8684H15.997C17.6862 11.6425 19.6839 11.5629 21.8293 11.5509C22.1748 11.5446 22.5136 11.5446 22.8523 11.5446C27.5498 11.5446 31.6489 11.7526 33.6712 13.0593Z" fill="#4E4A57"/>
<path d="M37.0866 9.10143L37.087 9.10122L37.087 9.10119L37.0866 9.10143ZM33.6712 13.0593L33.671 13.0597L33.671 13.0597L33.6712 13.0593ZM0 19.693L0.000440638 19.693L0.000439248 19.693L0 19.693ZM0.251684 18.4758L0.251266 18.4756L0.25127 18.4756L0.251684 18.4758ZM0.0436395 19.5656L0.0440787 19.5657H0.0440787L0.0436395 19.5656ZM17.2591 39.6327L17.2592 39.6322L17.2591 39.6322L17.2591 39.6327ZM38.0181 29.2318L38.0185 29.2321L38.0185 29.232L38.0181 29.2318ZM36.7913 27.9547L36.7911 27.9543L36.791 27.9544L36.7913 27.9547ZM36.7825 27.9608L36.7827 27.9612L36.7825 27.9608ZM36.7736 27.9672L36.7738 27.9676L36.7739 27.9675L36.7736 27.9672ZM35.6204 28.413L35.6203 28.4126H35.6203L35.6204 28.413ZM30.6911 25.2143L30.6914 25.214L30.6914 25.214L30.6911 25.2143ZM30.6911 25.2143L30.6907 25.2146L30.6908 25.2146L30.6911 25.2143ZM30.2202 24.6385L30.2205 24.6382L30.2202 24.6385ZM15.3816 24.6385L15.3813 24.6382L15.3816 24.6385ZM14.9014 25.2258L14.9017 25.2261L14.9017 25.2261L14.9014 25.2258ZM14.9012 25.226L14.9009 25.2257L14.9009 25.2257L14.9012 25.226ZM9.98121 28.413L9.98127 28.4126L9.98121 28.413ZM7.73734 26.0644L7.7369 26.0644L7.73691 26.0644L7.73734 26.0644ZM7.69106 24.7272L7.6915 24.7272L7.6915 24.7272L7.69106 24.7272ZM7.69106 24.7272L7.69062 24.7272L7.69062 24.7272L7.69106 24.7272ZM7.68816 24.6479H7.6886L7.6886 24.6479L7.68816 24.6479ZM12.0774 12.9321L12.0771 12.9318L12.0774 12.9321ZM14.3106 12.0546L14.3105 12.0541L14.3105 12.0541L14.3106 12.0546ZM15.9353 11.8746L15.9354 11.8751L15.9355 11.8751L15.9353 11.8746ZM15.997 11.8684V11.8688L15.9971 11.8688L15.997 11.8684ZM21.8293 11.5509L21.8293 11.5513L21.8294 11.5513L21.8293 11.5509ZM37.0863 9.10164C37.9831 10.7477 37.7443 12.1187 36.9739 12.8874C36.2034 13.6561 34.9014 13.8225 33.6715 13.0589L33.671 13.0597C34.9012 13.8234 36.2037 13.657 36.9745 12.888C37.7452 12.119 37.984 10.7475 37.087 9.10122L37.0863 9.10164ZM20.1639 0.000440141C27.2532 0.000440141 33.4861 3.62275 37.0863 9.10167L37.087 9.10119C33.4867 3.62203 27.2535 -0.000440141 20.1639 -0.000440141V0.000440141ZM0.000440097 19.693C0.154397 8.79011 9.12342 0.000440141 20.1639 0.000440141V-0.000440141C9.12295 -0.000440141 0.153524 8.78961 -0.000440097 19.693L0.000440097 19.693ZM0.25127 18.4756C0.1122 18.8622 0.0266826 19.2677 -0.000439248 19.6929L0.000439248 19.693C0.0275558 19.2679 0.113057 18.8624 0.252099 18.4759L0.25127 18.4756ZM0.251266 18.4756C0.137856 18.8237 0.0673599 19.1868 0.0432002 19.5656L0.0440787 19.5657C0.0682337 19.187 0.138716 18.8239 0.252103 18.4759L0.251266 18.4756ZM0.0432003 19.5656C0.0368522 19.6635 0.0368523 19.761 0.0368523 19.8592H0.0377326C0.0377326 19.7609 0.0377328 19.6636 0.0440787 19.5657L0.0432003 19.5656ZM0.0368523 19.8592C0.0368523 29.9047 7.51702 38.2191 17.259 39.6331L17.2591 39.6322C7.51757 38.2183 0.0377326 29.9042 0.0377326 19.8592H0.0368523ZM17.2589 39.6331C18.1626 39.8728 19.1167 40.0004 20.1156 40.0004V39.9996C19.1168 39.9996 18.1628 39.8719 17.2592 39.6322L17.2589 39.6331ZM20.1156 40.0004C27.9017 40.0004 34.659 35.6269 38.0185 29.232L38.0177 29.2316C34.6584 35.6262 27.9014 39.9996 20.1156 39.9996V40.0004ZM38.0185 29.232C38.2527 28.5843 38.1481 28.129 37.8837 27.9035C37.6193 27.6781 37.1953 27.6827 36.7911 27.9543L36.7916 27.955C37.1956 27.6836 37.6191 27.6791 37.8831 27.9042C38.1471 28.1293 38.2518 28.5841 38.0177 29.2317L38.0185 29.232ZM36.791 27.9544C36.788 27.9574 36.7851 27.9589 36.7822 27.9605L36.7827 27.9612C36.7855 27.9597 36.7885 27.9581 36.7916 27.955L36.791 27.9544ZM36.7822 27.9605C36.7792 27.9621 36.7763 27.9637 36.7732 27.9669L36.7739 27.9675C36.7768 27.9644 36.7797 27.9628 36.7827 27.9612L36.7822 27.9605ZM36.7733 27.9669C36.4709 28.1868 36.0883 28.3452 35.6203 28.4126L35.6205 28.4135C36.0886 28.3461 36.4713 28.1876 36.7738 27.9676L36.7733 27.9669ZM35.6203 28.4126C34.5859 28.569 33.7639 28.273 32.9955 27.6862C32.227 27.0993 31.512 26.2215 30.6914 25.214L30.6908 25.2146C31.5113 26.222 32.2263 27.0999 32.9949 27.6869C33.7635 28.2739 34.5857 28.5699 35.6205 28.4135L35.6203 28.4126ZM30.6914 25.214L30.6914 25.214L30.6908 25.2146L30.6908 25.2146L30.6914 25.214ZM30.6914 25.214C30.5385 25.0262 30.3818 24.8339 30.2205 24.6382L30.2198 24.6387C30.3812 24.8345 30.5378 25.0268 30.6907 25.2146L30.6914 25.214ZM30.2205 24.6382C29.351 23.5842 28.161 23.0191 26.8563 22.7175C25.5517 22.4159 24.1323 22.3778 22.804 22.3778V22.3787C24.1323 22.3787 25.5516 22.4168 26.8561 22.7184C28.1607 23.02 29.3505 23.585 30.2198 24.6387L30.2205 24.6382ZM22.804 22.3778C21.4754 22.3778 20.0559 22.4159 18.7506 22.7175C17.4452 23.0191 16.2538 23.5842 15.3813 24.6382L15.3819 24.6387C16.2543 23.585 17.4455 23.02 18.7508 22.7184C20.056 22.4168 21.4754 22.3787 22.804 22.3787V22.3778ZM15.3813 24.6382C15.2166 24.8379 15.0569 25.0341 14.901 25.2255L14.9017 25.2261C15.0576 25.0346 15.2173 24.8385 15.3819 24.6387L15.3813 24.6382ZM14.901 25.2255L14.9009 25.2257L14.9016 25.2263L14.9017 25.2261L14.901 25.2255ZM14.9009 25.2257C14.083 26.2302 13.3708 27.105 12.6042 27.6896C11.8376 28.2742 11.0166 28.5687 9.98127 28.4126L9.98114 28.4135C11.0168 28.5696 11.838 28.275 12.6047 27.6903C13.3715 27.1056 14.0838 26.2307 14.9016 25.2263L14.9009 25.2257ZM9.98127 28.4126C9.28066 28.3074 8.7805 28.0107 8.42514 27.5951C8.06977 27.1795 7.85919 26.6451 7.73777 26.0643L7.73691 26.0644C7.85834 26.6453 8.06897 27.18 8.42447 27.5957C8.77998 28.0114 9.28033 28.3082 9.98114 28.4135L9.98127 28.4126ZM7.73778 26.0643C7.70899 25.6473 7.6944 25.2276 7.6944 24.8064H7.69352C7.69352 25.2277 7.70811 25.6473 7.7369 26.0644L7.73778 26.0643ZM7.6944 24.8064C7.6944 24.779 7.69295 24.7531 7.6915 24.7272L7.69062 24.7272C7.69207 24.7531 7.69352 24.779 7.69352 24.8064H7.6944ZM7.6915 24.7272L7.6915 24.7271L7.69062 24.7272L7.69062 24.7272L7.6915 24.7272ZM7.6915 24.7271C7.69005 24.7012 7.6886 24.6753 7.6886 24.6479H7.68772C7.68772 24.6754 7.68917 24.7013 7.69062 24.7272L7.6915 24.7271ZM7.6886 24.6479C7.62957 23.0965 7.81444 20.757 8.47028 18.5107C9.12612 16.2643 10.2529 14.1112 12.0776 12.9325L12.0771 12.9318C10.2522 14.1107 9.1253 16.264 8.46943 18.5104C7.81357 20.7569 7.62869 23.0964 7.68772 24.648L7.6886 24.6479ZM12.0776 12.9325C12.6609 12.5561 13.4165 12.2709 14.3107 12.055L14.3105 12.0541C13.4163 12.2701 12.6605 12.5553 12.0771 12.9318L12.0776 12.9325ZM15.9353 11.8742C15.3905 11.9272 14.8482 11.9871 14.3105 12.0541L14.3106 12.055C14.8483 11.988 15.3906 11.9281 15.9354 11.8751L15.9353 11.8742ZM15.997 11.8679C15.9785 11.8679 15.9538 11.8679 15.9352 11.8742L15.9355 11.8751C15.9539 11.8688 15.9785 11.8688 15.997 11.8688V11.8679ZM15.997 11.8679H15.997V11.8688H15.997V11.8679ZM21.8293 11.5504C19.6839 11.5625 17.6862 11.6421 15.9969 11.8679L15.9971 11.8688C17.6862 11.6429 19.6839 11.5633 21.8293 11.5513L21.8293 11.5504ZM22.8523 11.5441C22.5136 11.5441 22.1748 11.5441 21.8293 11.5504L21.8294 11.5513C22.1748 11.545 22.5136 11.545 22.8523 11.545V11.5441ZM33.6715 13.0589C32.6602 12.4055 31.1298 12.0268 29.265 11.8115C27.4002 11.5961 25.2011 11.5441 22.8523 11.5441V11.545C25.2011 11.545 27.4002 11.597 29.2649 11.8124C31.1296 12.0277 32.6599 12.4064 33.671 13.0597L33.6715 13.0589Z" fill="#4E4A57"/>
</svg>
