<svg width="39" height="40" viewBox="0 0 39 40" fill="none" xmlns="http://www.w3.org/2000/svg">
  <circle cx="19.2001" cy="20.0001" r="16.0001" fill="white" />
  <path fill-rule="evenodd" clip-rule="evenodd" d="M17.5224 23.1246C19.1183 22.4984 21.016 22.4338 22.7583 22.4338C25.4359 22.4338 28.4792 22.5863 30.2375 24.694C30.4033 24.8936 30.5641 25.0897 30.7211 25.2811L30.7215 25.2815L30.7215 25.2815C32.3697 27.2905 33.5923 28.7807 35.6792 28.4686C37.0913 28.2581 37.6955 27.2817 37.9402 26.1201C37.9692 25.703 37.9839 25.2832 37.9839 24.8619C37.9839 24.8345 37.9854 24.8086 37.9868 24.7827C37.9883 24.7568 37.9898 24.7309 37.9898 24.7035C38.1087 21.6005 37.2446 15.3453 33.5669 12.9877C32.9792 12.6113 32.2176 12.326 31.3166 12.1101C30.7748 12.0431 30.2284 11.9832 29.6795 11.9302C29.6609 11.9239 29.636 11.9239 29.6174 11.9239H29.6174C27.9153 11.698 25.9023 11.6184 23.7404 11.6064C23.3923 11.6001 23.051 11.6001 22.7096 11.6001C20.8587 11.6001 19.0999 11.6319 17.5224 11.7488V23.1246Z" fill="white" />
  <path fill-rule="evenodd" clip-rule="evenodd" d="M15.0221 21.9512C15.5666 21.9512 16.0097 21.4418 16.0097 20.8205V19.6096H17.2299C17.8564 19.6096 18.3711 19.1695 18.3711 18.6307C18.3711 18.0927 17.8564 17.6516 17.2299 17.6516H16.0097V16.4415C16.0097 15.8198 15.5666 15.3105 15.0221 15.3105C14.4801 15.3105 14.0338 15.8198 14.0338 16.4415V17.6516H12.8096C12.1824 17.6516 11.6677 18.0927 11.6677 18.6307C11.6677 19.1695 12.1824 19.6096 12.8096 19.6096H14.0338V20.8205C14.0338 21.4418 14.4801 21.9512 15.0221 21.9512Z" fill="#181922" />
  <path d="M30.1843 17.468C30.8675 17.468 31.4218 16.9182 31.4218 16.2424C31.4218 15.5661 30.8675 15.0154 30.1843 15.0154C29.5023 15.0154 28.9478 15.5661 28.9478 16.2424C28.9478 16.9182 29.5023 17.468 30.1843 17.468Z" fill="#CFAA25" />
  <path d="M32.5944 17.4033C31.9118 17.4033 31.3569 17.9539 31.3569 18.6302C31.3569 19.3063 31.9118 19.8563 32.5944 19.8563C33.2769 19.8563 33.832 19.3063 33.832 18.6302C33.832 17.9539 33.2769 17.4033 32.5944 17.4033Z" fill="#212B70" />
  <path d="M30.1843 19.8701C29.5023 19.8701 28.9478 20.4201 28.9478 21.0957C28.9478 21.772 29.5023 22.3221 30.1843 22.3221C30.8675 22.3221 31.4218 21.772 31.4218 21.0957C31.4218 20.4201 30.8675 19.8701 30.1843 19.8701Z" fill="#67068B" />
  <path fill-rule="evenodd" clip-rule="evenodd" d="M27.6953 17.4033C27.0135 17.4033 26.4591 17.9539 26.4591 18.6302C26.4591 19.3063 27.0135 19.8563 27.6953 19.8563C28.3792 19.8563 28.9348 19.3063 28.9348 18.6302C28.9348 17.9539 28.3792 17.4033 27.6953 17.4033Z" fill="#77D952" />
  <path d="M7.60181 24.9615C7.68813 26.556 8.15055 28.1381 9.98121 28.413C12.2496 28.7549 13.4891 26.9344 15.3816 24.6384C17.1265 22.5307 20.1468 22.3782 22.804 22.3782C25.4607 22.3782 28.4813 22.5307 30.2202 24.6384C32.1123 26.9344 33.3583 28.7549 35.6204 28.413C36.0884 28.3456 36.4711 28.1871 36.7736 27.9672C36.7794 27.9609 36.785 27.9609 36.7913 27.9546C37.5996 27.4116 38.4863 27.9365 38.0181 29.2318C34.6587 35.6265 27.9015 39.9999 20.1156 39.9999C12.5891 39.9999 7.60181 32.75 7.60181 24.9615Z" fill="url(#paint0_linear_1101_28471)" />
  <path d="M7.60181 24.9615C7.68813 26.556 8.15055 28.1381 9.98121 28.413C12.2496 28.7549 13.4891 26.9344 15.3816 24.6384C17.1265 22.5307 20.1468 22.3782 22.804 22.3782C25.4607 22.3782 28.4813 22.5307 30.2202 24.6384C32.1123 26.9344 33.3583 28.7549 35.6204 28.413C36.0884 28.3456 36.4711 28.1871 36.7736 27.9672C36.7794 27.9609 36.785 27.9609 36.7913 27.9546C37.5996 27.4116 38.4863 27.9365 38.0181 29.2318C34.6587 35.6265 27.9015 39.9999 20.1156 39.9999C12.5891 39.9999 7.60181 32.75 7.60181 24.9615" stroke="#CD1C24" stroke-width="0.000880282" stroke-miterlimit="2" stroke-linejoin="round" />
  <path d="M7.69396 24.8064C7.69396 32.5947 12.6813 39.8447 20.2077 39.8447C9.06836 39.8447 0.0372925 30.8969 0.0372925 19.8592C0.0372925 19.7609 0.0372925 19.6636 0.0436395 19.5656C0.345576 14.8319 7.88546 12.5356 15.979 11.7473C14.3398 11.9734 12.9952 12.3399 12.0774 12.9321C8.42767 15.2897 7.5701 21.545 7.68816 24.6479C7.68816 24.7027 7.69396 24.7516 7.69396 24.8064Z" fill="url(#paint1_linear_1101_28471)" />
  <path d="M7.69396 24.8064C7.69396 32.5947 12.6813 39.8447 20.2077 39.8447C9.06836 39.8447 0.0372925 30.8969 0.0372925 19.8592C0.0372925 19.7609 0.0372925 19.6636 0.0436395 19.5656C0.345576 14.8319 7.88546 12.5356 15.979 11.7473C14.3398 11.9734 12.9952 12.3399 12.0774 12.9321C8.42767 15.2897 7.5701 21.545 7.68816 24.6479C7.68816 24.7027 7.69396 24.7516 7.69396 24.8064" stroke="#CD1C24" stroke-width="0.000880282" stroke-miterlimit="2" stroke-linejoin="round" />
  <path d="M37.0866 9.10143C38.8805 12.3937 36.1313 14.5866 33.6712 13.0593C31.6489 11.7526 27.5498 11.5446 22.8523 11.5446C22.5136 11.5446 22.1748 11.5446 21.8293 11.5509C19.6839 11.5629 17.6862 11.6425 15.997 11.8684C15.9785 11.8684 15.9538 11.8684 15.9353 11.8746C7.84182 12.6627 0.301936 14.9592 0 19.693C0.15396 8.78986 9.12319 0 20.1639 0C27.2533 0 33.4864 3.62239 37.0866 9.10143Z" fill="url(#paint2_linear_1101_28471)" />
  <path d="M37.0866 9.10143C38.8805 12.3937 36.1313 14.5866 33.6712 13.0593C31.6489 11.7526 27.5498 11.5446 22.8523 11.5446C22.5136 11.5446 22.1748 11.5446 21.8293 11.5509C19.6839 11.5629 17.6862 11.6425 15.997 11.8684C15.9785 11.8684 15.9538 11.8684 15.9353 11.8746C7.84182 12.6627 0.301936 14.9592 0 19.693C0.15396 8.78986 9.12319 0 20.1639 0C27.2533 0 33.4864 3.62239 37.0866 9.10143" stroke="#CD1C24" stroke-width="0.000880282" stroke-miterlimit="2" stroke-linejoin="round" />
  <defs>
    <linearGradient id="paint0_linear_1101_28471" x1="37.3957" y1="31.1891" x2="6.45463" y2="31.1891" gradientUnits="userSpaceOnUse">
      <stop stop-color="#EC1E27" />
      <stop offset="0.44" stop-color="#BE1B23" />
      <stop offset="0.58" stop-color="#BE1B23" />
      <stop offset="1" stop-color="#710F14" />
    </linearGradient>
    <linearGradient id="paint1_linear_1101_28471" x1="10.1225" y1="39.8082" x2="10.1225" y2="10.2434" gradientUnits="userSpaceOnUse">
      <stop stop-color="#EC1E27" />
      <stop offset="0.44" stop-color="#BE1B23" />
      <stop offset="0.58" stop-color="#BE1B23" />
      <stop offset="1" stop-color="#710F14" />
    </linearGradient>
    <linearGradient id="paint2_linear_1101_28471" x1="-1.47018" y1="9.84655" x2="42.6522" y2="9.84655" gradientUnits="userSpaceOnUse">
      <stop stop-color="#EC1E27" />
      <stop offset="0.44" stop-color="#BE1B23" />
      <stop offset="0.58" stop-color="#BE1B23" />
      <stop offset="1" stop-color="#710F14" />
    </linearGradient>
  </defs>
</svg>