<svg width="20" height="20" viewBox="0 0 20 20" fill="none" xmlns="http://www.w3.org/2000/svg">
  <g opacity="0.6" clip-path="url(#clip0_2075_11963)">
    <path fill-rule="evenodd" clip-rule="evenodd" d="M12.1361 7.90714L12.1361 3.73124L13.0788 4.60982C13.5183 5.03661 14.2309 5.03661 14.6704 4.60982C15.1099 4.18304 15.1099 3.49106 14.6704 3.06428L11.8153 0.328711L11.8108 0.324397C11.6068 0.124111 11.3237 0 11.0106 0L11 4.79539e-05L10.9894 0C10.6763 0 10.3932 0.124111 10.1892 0.324397L10.1847 0.328711L7.32963 3.06427C6.89012 3.49106 6.89012 4.18303 7.32963 4.60982C7.76914 5.03661 8.48173 5.03661 8.92123 4.60982L9.86394 3.73124V7.90714C9.86394 8.51071 10.3678 9 10.9894 9L11 8.99995L11.0106 9C11.6322 9 12.1361 8.51071 12.1361 7.90714ZM0 6.2C0 5.53726 0.526179 5 1.17526 5H2.54639C2.67599 5 2.80066 5.02142 2.91725 5.06097C3.30261 5.17225 3.62244 5.4819 3.73363 5.90557L6.12023 14H6.46124L6.46392 14H15L15.6907 14L16.0213 14H16.09L17.36 9.85322C17.5452 9.24859 18.1759 8.89918 18.7867 9.06285C19.4289 9.23491 19.8003 9.90529 19.6056 10.541L18.1521 15.2868C18.1282 15.3649 18.0968 15.4387 18.0591 15.5077C17.9271 16.003 17.5094 16.3415 17.0362 16.3875C16.9807 16.3957 16.9238 16.4 16.866 16.4H15.6934L15.6907 16.4L6.46392 16.4L5.28866 16.4C5.23747 16.4 5.18702 16.3967 5.13754 16.3902C4.64974 16.3567 4.21483 16.0122 4.08124 15.5031L1.69235 7.4H1.17526C0.526179 7.4 0 6.86274 0 6.2ZM5.48454 20C6.24179 20 6.85567 19.3732 6.85567 18.6C6.85567 17.8268 6.24179 17.2 5.48454 17.2C4.72728 17.2 4.1134 17.8268 4.1134 18.6C4.1134 19.3732 4.72728 20 5.48454 20ZM18.0412 18.6C18.0412 19.3732 17.4274 20 16.6701 20C15.9128 20 15.299 19.3732 15.299 18.6C15.299 17.8268 15.9128 17.2 16.6701 17.2C17.4274 17.2 18.0412 17.8268 18.0412 18.6Z" fill="white" />
  </g>
  <defs>
    <clipPath id="clip0_2075_11963">
      <rect width="20" height="20" fill="white" />
    </clipPath>
  </defs>
</svg>