<svg width="18" height="18" viewBox="0 0 18 18" fill="none" xmlns="http://www.w3.org/2000/svg">
  <path fill-rule="evenodd" clip-rule="evenodd" d="M13.0909 6.54545C13.0909 8.8048 11.2593 10.6364 9 10.6364C6.74065 10.6364 4.90909 8.8048 4.90909 6.54545C4.90909 4.28611 6.74065 2.45455 9 2.45455C11.2593 2.45455 13.0909 4.28611 13.0909 6.54545ZM13.3392 11.446C14.6925 10.2468 15.5455 8.49574 15.5455 6.54545C15.5455 2.9305 12.615 0 9 0C5.38505 0 2.45455 2.9305 2.45455 6.54545C2.45455 8.49577 3.30754 10.2469 4.66081 11.446C2.19367 12.4353 0.433183 14.2421 0.0696055 16.3643C0.0245256 16.4921 0 16.6295 0 16.7727C0 17.4505 0.549469 18 1.22727 18C1.90508 18 2.45455 17.4505 2.45455 16.7727H2.4911C2.61991 16.0459 3.09939 15.2516 4.07982 14.5386C5.2456 13.6907 6.97723 13.0909 9.00009 13.0909C11.0229 13.0909 12.7546 13.6907 13.9204 14.5386C14.9008 15.2516 15.3803 16.0459 15.5091 16.7727H15.5455C15.5455 17.4505 16.0949 18 16.7727 18C17.4505 18 18 17.4505 18 16.7727C18 16.6299 17.9756 16.4927 17.9307 16.3652C17.5675 14.2426 15.8068 12.4354 13.3392 11.446Z" fill="#B8B5C2" />
</svg>