<svg width="18" height="18" viewBox="0 0 18 18" fill="none" xmlns="http://www.w3.org/2000/svg">
  <path fill-rule="evenodd" clip-rule="evenodd" d="M9 0C8.3222 0 7.77273 0.549469 7.77273 1.22727V6.95455C7.77273 7.63236 8.3222 8.18183 9 8.18183C9.6778 8.18183 10.2273 7.63236 10.2273 6.95455V1.22727C10.2273 0.549469 9.6778 0 9 0ZM4.53727 4.49429C4.75218 4.2778 4.88452 3.98229 4.88452 3.6565C4.88452 2.99268 4.33505 2.45455 3.65725 2.45455C3.32224 2.45455 3.01858 2.58601 2.79712 2.79913C1.07404 4.40482 0 6.67241 0 9.18568C0 14.0537 4.02944 18 9 18C13.9706 18 18 14.0537 18 9.18568C18 6.6724 16.926 4.40479 15.2029 2.79911C14.9814 2.586 14.6777 2.45455 14.3428 2.45455C13.6649 2.45455 13.1155 2.99268 13.1155 3.6565C13.1155 3.98229 13.2478 4.27781 13.4627 4.49429L13.4421 4.51447C14.7411 5.68406 15.5455 7.35546 15.5455 9.18568C15.5455 12.6501 12.6634 15.5455 9 15.5455C5.33655 15.5455 2.45455 12.6501 2.45455 9.18568C2.45455 7.35546 3.25889 5.68405 4.55787 4.51447L4.53727 4.49429Z" fill="#B8B5C2" />
</svg>