<svg width="18" height="18" viewBox="0 0 18 18" fill="none" xmlns="http://www.w3.org/2000/svg">
  <path fill-rule="evenodd" clip-rule="evenodd" d="M9.60868 4.90909C9.10324 6.3391 7.73945 7.36364 6.13636 7.36364C4.53328 7.36364 3.16948 6.3391 2.66405 4.90909H1.22727C0.549469 4.90909 0 4.35962 0 3.68182C0 3.00401 0.549469 2.45454 1.22727 2.45454H2.66405C3.16949 1.02454 4.53328 0 6.13636 0C7.73945 0 9.10324 1.02454 9.60868 2.45454L16.7727 2.45455C17.4505 2.45455 18 3.00401 18 3.68182C18 4.35962 17.4505 4.90909 16.7727 4.90909L9.60868 4.90909ZM4.90909 3.68181C4.90909 3.004 5.45856 2.45453 6.13636 2.45453C6.81417 2.45453 7.36364 3.004 7.36364 3.68181C7.36364 4.35961 6.81417 4.90908 6.13636 4.90908C5.45856 4.90908 4.90909 4.35961 4.90909 3.68181ZM8.39132 13.0909H1.22727C0.549469 13.0909 0 13.6404 0 14.3182C0 14.996 0.549469 15.5455 1.22727 15.5455H8.39132C8.89676 16.9755 10.2605 18 11.8636 18C13.4667 18 14.8305 16.9755 15.336 15.5455H16.7727C17.4505 15.5455 18 14.996 18 14.3182C18 13.6404 17.4505 13.0909 16.7727 13.0909H15.336C14.8305 11.6609 13.4667 10.6364 11.8636 10.6364C10.2605 10.6364 8.89676 11.6609 8.39132 13.0909ZM13.0909 14.3182C13.0909 14.996 12.5414 15.5455 11.8636 15.5455C11.1858 15.5455 10.6364 14.996 10.6364 14.3182C10.6364 13.6404 11.1858 13.0909 11.8636 13.0909C12.5414 13.0909 13.0909 13.6404 13.0909 14.3182Z" fill="#B8B5C2" />
</svg>