<svg width="40" height="40" viewBox="0 0 40 40" fill="none" xmlns="http://www.w3.org/2000/svg">
<path d="M20 40C14.6957 40 9.60859 37.8929 5.85786 34.1421C2.10714 30.3914 0 25.3043 0 20C0 14.6957 2.10714 9.60859 5.85786 5.85786C9.60859 2.10714 14.6957 0 20 0C25.3043 0 30.3914 2.10714 34.1421 5.85786C37.8929 9.60859 40 14.6957 40 20C40 25.3043 37.8929 30.3914 34.1421 34.1421C30.3914 37.8929 25.3043 40 20 40ZM14 12V16C14 17.5913 14.6321 19.1174 15.7574 20.2426C16.8826 21.3679 18.4087 22 20 22C21.5913 22 23.1174 21.3679 24.2426 20.2426C25.3679 19.1174 26 17.5913 26 16V12C26 10.4087 25.3679 8.88258 24.2426 7.75736C23.1174 6.63214 21.5913 6 20 6C18.4087 6 16.8826 6.63214 15.7574 7.75736C14.6321 8.88258 14 10.4087 14 12ZM6.7 28.88C8.1621 31.0663 10.1406 32.8585 12.4604 34.0979C14.7803 35.3372 17.3699 35.9856 20 35.9856C22.6301 35.9856 25.2197 35.3372 27.5396 34.0979C29.8594 32.8585 31.8379 31.0663 33.3 28.88C29.1277 26.9647 24.5909 25.9732 20 25.9732C15.4091 25.9732 10.8723 26.9647 6.7 28.88Z" fill="#3D3846"/>
</svg>
