<svg width="50" height="50" viewBox="0 0 50 50" fill="none" xmlns="http://www.w3.org/2000/svg">
  <path fill-rule="evenodd" clip-rule="evenodd" d="M25 47.3214C37.3278 47.3214 47.3214 37.3278 47.3214 25C47.3214 12.6722 37.3278 2.67857 25 2.67857C12.6722 2.67857 2.67857 12.6722 2.67857 25C2.67857 37.3278 12.6722 47.3214 25 47.3214ZM25 50C38.8071 50 50 38.8071 50 25C50 11.1929 38.8071 0 25 0C11.1929 0 0 11.1929 0 25C0 38.8071 11.1929 50 25 50Z" fill="#5DB43D" />
  <path fill-rule="evenodd" clip-rule="evenodd" d="M34.4307 21.1077L24.1647 31.7383C23.6438 32.2777 22.7993 32.2777 22.2785 31.7383L15.5691 24.7906C15.0482 24.2512 15.0482 23.3768 15.5691 22.8374C16.0899 22.2981 16.9344 22.2981 17.4552 22.8374L23.2216 28.8086L32.5445 19.1545C33.0653 18.6152 33.9098 18.6152 34.4307 19.1545C34.9515 19.6939 34.9515 20.5683 34.4307 21.1077Z" fill="#5DB43D" />
</svg>