<svg width="19" height="18" viewBox="0 0 19 18" fill="none" xmlns="http://www.w3.org/2000/svg">
  <path fill-rule="evenodd" clip-rule="evenodd" d="M9.50002 0C8.89251 0 8.40002 0.492487 8.40002 1.1V7.89999L1.6 7.89999C0.992487 7.89999 0.5 8.39248 0.5 8.99999C0.5 9.60751 0.992487 10.1 1.6 10.1H8.40002V16.9C8.40002 17.5075 8.89251 18 9.50002 18C10.1075 18 10.6 17.5075 10.6 16.9V10.1H17.4C18.0075 10.1 18.5 9.60751 18.5 8.99999C18.5 8.39248 18.0075 7.89999 17.4 7.89999L10.6 7.89999V1.1C10.6 0.492487 10.1075 0 9.50002 0Z" fill="white" />
</svg>