<svg width="50" height="50" viewBox="0 0 50 50" fill="none" xmlns="http://www.w3.org/2000/svg">
  <path fill-rule="evenodd" clip-rule="evenodd" d="M25 47.3214C37.3278 47.3214 47.3214 37.3278 47.3214 25C47.3214 12.6722 37.3278 2.67857 25 2.67857C12.6722 2.67857 2.67857 12.6722 2.67857 25C2.67857 37.3278 12.6722 47.3214 25 47.3214ZM25 50C38.8071 50 50 38.8071 50 25C50 11.1929 38.8071 0 25 0C11.1929 0 0 11.1929 0 25C0 38.8071 11.1929 50 25 50Z" fill="#D0383F" />
  <path fill-rule="evenodd" clip-rule="evenodd" d="M27.0513 24.9979L32.6451 19.2588C33.166 18.734 33.166 17.8832 32.6451 17.3584C32.1243 16.8337 31.2798 16.8337 30.759 17.3584L25.0075 23.2767L19.2412 17.4669C18.7203 16.9421 17.8758 16.9421 17.355 17.4669C16.8341 17.9917 16.8341 18.8425 17.355 19.3673L22.9488 25.0032L17.355 30.7423C16.8341 31.2671 16.8341 32.1179 17.355 32.6427C17.8758 33.1675 18.7203 33.1675 19.2412 32.6427L24.9926 26.7244L30.759 32.5342C31.2798 33.059 32.1243 33.059 32.6451 32.5342C33.166 32.0094 33.166 31.1586 32.6451 30.6339L27.0513 24.9979Z" fill="#D0383F" />
</svg>