<svg width="50" height="50" viewBox="0 0 50 50" fill="none" xmlns="http://www.w3.org/2000/svg">
  <path d="M48.5 25C49.3285 25 50.0047 24.3278 49.9551 23.5009C49.6565 18.5304 47.879 13.7494 44.8339 9.78097C41.4836 5.41487 36.7863 2.27624 31.4705 0.851863C26.1547 -0.57251 20.5174 -0.203023 15.433 1.90302C10.3485 4.00906 6.10108 7.73396 3.3494 12.5C0.597723 17.2661 -0.504418 22.8069 0.213914 28.2632C0.932245 33.7194 3.4309 38.7862 7.32236 42.6777C11.2138 46.5691 16.2806 49.0678 21.7369 49.7861C26.6962 50.439 31.7255 49.588 36.1792 47.3613C36.9202 46.9908 37.1642 46.069 36.75 45.3516C36.3358 44.6342 35.4204 44.3934 34.6764 44.7578C30.7972 46.6577 26.4329 47.3785 22.1285 46.8118C17.3269 46.1797 12.8682 43.9808 9.44368 40.5564C6.0192 37.1319 3.82038 32.6731 3.18825 27.8716C2.55612 23.0701 3.526 18.1941 5.94748 14C8.36895 9.80589 12.1067 6.52798 16.581 4.67466C21.0553 2.82134 26.0161 2.49619 30.6941 3.74964C35.372 5.00309 39.5056 7.76508 42.4538 11.6073C45.0968 15.0517 46.6547 19.1916 46.9489 23.5011C47.0054 24.3276 47.6716 25 48.5 25Z" fill="#E7C92A" />
  <path fill-rule="evenodd" clip-rule="evenodd" d="M25 11C24.1716 11 23.5 11.6716 23.5 12.5V25.5C23.5 25.9306 23.6814 26.3188 23.9721 26.5924C23.9813 26.6021 23.9906 26.6117 24.0001 26.6212L28.9499 31.571C29.5356 32.1567 30.4854 32.1567 31.0712 31.571C31.657 30.9852 31.657 30.0354 31.0712 29.4496L26.5 24.8785V12.5C26.5 11.6716 25.8284 11 25 11Z" fill="#E7C92A" />
</svg>