<svg width="50" height="31" viewBox="0 0 50 31" fill="none" xmlns="http://www.w3.org/2000/svg">
  <path d="M10.236 5.98753C18.39 -1.99584 31.6101 -1.99584 39.764 5.98753L40.7454 6.94834C41.153 7.34751 41.153 7.99469 40.7454 8.39386L37.3884 11.6806C37.1845 11.8802 36.854 11.8802 36.6502 11.6806L35.2998 10.3584C29.6114 4.78901 20.3887 4.78901 14.7003 10.3584L13.2541 11.7744C13.0502 11.974 12.7197 11.974 12.5159 11.7744L9.15893 8.48763C8.75123 8.08846 8.75123 7.44128 9.15893 7.04211L10.236 5.98753ZM46.7065 12.7849L49.6942 15.7101C50.1019 16.1093 50.1019 16.7564 49.6942 17.1556L36.2225 30.3458C35.8148 30.745 35.1538 30.745 34.7461 30.3458C34.7461 30.3458 34.7461 30.3458 34.7461 30.3458L25.1846 20.9843C25.0827 20.8845 24.9175 20.8845 24.8155 20.9843C24.8155 20.9843 24.8155 20.9843 24.8155 20.9843L15.2543 30.3458C14.8466 30.745 14.1856 30.745 13.7779 30.3458C13.7779 30.3458 13.7779 30.3458 13.7779 30.3458L0.305772 17.1554C-0.101924 16.7563 -0.101924 16.1091 0.305772 15.7099L3.29348 12.7847C3.70118 12.3855 4.36218 12.3855 4.76988 12.7847L14.3315 22.1463C14.4334 22.2461 14.5986 22.2461 14.7006 22.1463C14.7006 22.1463 14.7006 22.1463 14.7006 22.1463L24.2616 12.7847C24.6693 12.3855 25.3303 12.3855 25.738 12.7847C25.7381 12.7847 25.7381 12.7847 25.7381 12.7847L35.2996 22.1463C35.4015 22.2461 35.5668 22.2461 35.6687 22.1463L45.2301 12.7849C45.6378 12.3857 46.2988 12.3857 46.7065 12.7849Z" fill="#3B99FC" />
</svg>