<?xml version="1.0" encoding="UTF-8" standalone="no"?>
<!DOCTYPE svg PUBLIC "-//W3C//DTD SVG 1.1//EN" "http://www.w3.org/Graphics/SVG/1.1/DTD/svg11.dtd">
<svg width="50" height="50" viewBox="0 0 50 50" fill="none" xmlns="http://www.w3.org/2000/svg">
  <ellipse cx="23" cy="26.5" rx="17" ry="17.5" fill="white" />
  <path fill-rule="evenodd" clip-rule="evenodd" d="M21.9029 28.9056C23.8977 28.1228 26.2698 28.042 28.4477 28.042C31.7947 28.042 35.5989 28.2327 37.7966 30.8673C38.0039 31.1168 38.205 31.3619 38.4012 31.6011L38.4017 31.6017L38.4017 31.6017C40.4619 34.1129 41.9902 35.9757 44.5988 35.5855C46.3639 35.3224 47.1191 34.1019 47.425 32.6499C47.4613 32.1285 47.4797 31.6039 47.4797 31.0772C47.4797 31.043 47.4815 31.0106 47.4833 30.9782C47.4851 30.9458 47.487 30.9134 47.487 30.8791C47.6357 27.0005 46.5555 19.1815 41.9585 16.2345C41.2238 15.764 40.2718 15.4074 39.1455 15.1375C38.4683 15.0537 37.7853 14.9789 37.0992 14.9126C37.0759 14.9047 37.0449 14.9047 37.0216 14.9047H37.0216C34.8939 14.6224 32.3777 14.5229 29.6754 14.5079C29.2402 14.5 28.8136 14.5 28.3869 14.5C26.0732 14.5 23.8747 14.5398 21.9029 14.6859V28.9056Z" fill="white" />
  <path fill-rule="evenodd" clip-rule="evenodd" d="M18.7775 27.439C19.4582 27.439 20.012 26.8023 20.012 26.0256V24.5119H21.5373C22.3204 24.5119 22.9637 23.9619 22.9637 23.2883C22.9637 22.6158 22.3204 22.0645 21.5373 22.0645H20.012V20.5518C20.012 19.7747 19.4582 19.1382 18.7775 19.1382C18.1001 19.1382 17.5421 19.7747 17.5421 20.5518V22.0645H16.012C15.2279 22.0645 14.5846 22.6158 14.5846 23.2883C14.5846 23.9619 15.2279 24.5119 16.012 24.5119H17.5421V26.0256C17.5421 26.8023 18.1001 27.439 18.7775 27.439Z" fill="#181922" />
  <path d="M37.7303 21.8349C38.5842 21.8349 39.2771 21.1476 39.2771 20.3028C39.2771 19.4574 38.5842 18.769 37.7303 18.769C36.8778 18.769 36.1846 19.4574 36.1846 20.3028C36.1846 21.1476 36.8778 21.8349 37.7303 21.8349Z" fill="#CFAA25" />
  <path d="M40.7428 21.7539C39.8896 21.7539 39.1959 22.4421 39.1959 23.2875C39.1959 24.1326 39.8896 24.8201 40.7428 24.8201C41.596 24.8201 42.2899 24.1326 42.2899 23.2875C42.2899 22.4421 41.596 21.7539 40.7428 21.7539Z" fill="#212B70" />
  <path d="M37.7303 24.8374C36.8778 24.8374 36.1846 25.5249 36.1846 26.3694C36.1846 27.2148 36.8778 27.9023 37.7303 27.9023C38.5842 27.9023 39.2771 27.2148 39.2771 26.3694C39.2771 25.5249 38.5842 24.8374 37.7303 24.8374Z" fill="#67068B" />
  <path fill-rule="evenodd" clip-rule="evenodd" d="M34.619 21.7539C33.7667 21.7539 33.0737 22.4421 33.0737 23.2875C33.0737 24.1326 33.7667 24.8201 34.619 24.8201C35.4738 24.8201 36.1683 24.1326 36.1683 23.2875C36.1683 22.4421 35.4738 21.7539 34.619 21.7539Z" fill="#77D952" />
  <path d="M9.5022 31.2018C9.6101 33.1949 10.1881 35.1725 12.4764 35.5161C15.3119 35.9435 16.8613 33.6679 19.2269 30.7979C21.408 28.1633 25.1833 27.9727 28.5048 27.9727C31.8257 27.9727 35.6014 28.1633 37.775 30.7979C40.1402 33.6679 41.6977 35.9435 44.5253 35.5161C45.1103 35.4319 45.5886 35.2338 45.9667 34.9589C45.974 34.951 45.981 34.951 45.9889 34.9432C46.9992 34.2644 48.1077 34.9205 47.5224 36.5396C43.3232 44.533 34.8767 49.9998 25.1443 49.9998C15.7363 49.9998 9.5022 40.9373 9.5022 31.2018Z" fill="url(#paint0_linear_2975_274)" />
  <path d="M9.5022 31.2018C9.6101 33.1949 10.1881 35.1725 12.4764 35.5161C15.3119 35.9435 16.8613 33.6679 19.2269 30.7979C21.408 28.1633 25.1833 27.9727 28.5048 27.9727C31.8257 27.9727 35.6014 28.1633 37.775 30.7979C40.1402 33.6679 41.6977 35.9435 44.5253 35.5161C45.1103 35.4319 45.5886 35.2338 45.9667 34.9589C45.974 34.951 45.981 34.951 45.9889 34.9432C46.9992 34.2644 48.1077 34.9205 47.5224 36.5396C43.3232 44.533 34.8767 49.9998 25.1443 49.9998C15.7363 49.9998 9.5022 40.9373 9.5022 31.2018" stroke="#CD1C24" stroke-width="0.000880282" stroke-miterlimit="2" stroke-linejoin="round" />
  <path d="M9.61742 31.0079C9.61742 40.7432 15.8515 49.8057 25.2595 49.8057C11.3354 49.8057 0.0466309 38.621 0.0466309 24.8239C0.0466309 24.7011 0.0466309 24.5793 0.0545646 24.4569C0.431983 18.5398 9.85679 15.6694 19.9736 14.6841C17.9247 14.9666 16.2439 15.4248 15.0967 16.1651C10.5346 19.1121 9.4626 26.9311 9.61017 30.8098C9.61017 30.8783 9.61742 30.9394 9.61742 31.0079Z" fill="url(#paint1_linear_2975_274)" />
  <path d="M9.61742 31.0079C9.61742 40.7432 15.8515 49.8057 25.2595 49.8057C11.3354 49.8057 0.0466309 38.621 0.0466309 24.8239C0.0466309 24.7011 0.0466309 24.5793 0.0545646 24.4569C0.431983 18.5398 9.85679 15.6694 19.9736 14.6841C17.9247 14.9666 16.2439 15.4248 15.0967 16.1651C10.5346 19.1121 9.4626 26.9311 9.61017 30.8098C9.61017 30.8783 9.61742 30.9394 9.61742 31.0079" stroke="#CD1C24" stroke-width="0.000880282" stroke-miterlimit="2" stroke-linejoin="round" />
  <path d="M46.3581 11.3767C48.6004 15.4921 45.164 18.2331 42.0888 16.324C39.5609 14.6907 34.4371 14.4306 28.5653 14.4306C28.1418 14.4306 27.7184 14.4306 27.2866 14.4385C24.6047 14.4536 22.1077 14.553 19.9962 14.8354C19.973 14.8354 19.9422 14.8354 19.9191 14.8432C9.80223 15.8283 0.377418 18.699 0 24.6161C0.192449 10.9873 11.4039 0 25.2048 0C34.0665 0 41.8579 4.52796 46.3581 11.3767Z" fill="url(#paint2_linear_2975_274)" />
  <path d="M46.3581 11.3767C48.6004 15.4921 45.164 18.2331 42.0888 16.324C39.5609 14.6907 34.4371 14.4306 28.5653 14.4306C28.1418 14.4306 27.7184 14.4306 27.2866 14.4385C24.6047 14.4536 22.1077 14.553 19.9962 14.8354C19.973 14.8354 19.9422 14.8354 19.9191 14.8432C9.80223 15.8283 0.377418 18.699 0 24.6161C0.192449 10.9873 11.4039 0 25.2048 0C34.0665 0 41.8579 4.52796 46.3581 11.3767" stroke="#CD1C24" stroke-width="0.000880282" stroke-miterlimit="2" stroke-linejoin="round" />
  <defs>
    <linearGradient id="paint0_linear_2975_274" x1="46.7445" y1="38.9862" x2="8.06823" y2="38.9862" gradientUnits="userSpaceOnUse">
      <stop stop-color="#EC1E27" />
      <stop offset="0.44" stop-color="#BE1B23" />
      <stop offset="0.58" stop-color="#BE1B23" />
      <stop offset="1" stop-color="#710F14" />
    </linearGradient>
    <linearGradient id="paint1_linear_2975_274" x1="12.6531" y1="49.7601" x2="12.6531" y2="12.8042" gradientUnits="userSpaceOnUse">
      <stop stop-color="#EC1E27" />
      <stop offset="0.44" stop-color="#BE1B23" />
      <stop offset="0.58" stop-color="#BE1B23" />
      <stop offset="1" stop-color="#710F14" />
    </linearGradient>
    <linearGradient id="paint2_linear_2975_274" x1="-1.83772" y1="12.3081" x2="53.315" y2="12.3081" gradientUnits="userSpaceOnUse">
      <stop stop-color="#EC1E27" />
      <stop offset="0.44" stop-color="#BE1B23" />
      <stop offset="0.58" stop-color="#BE1B23" />
      <stop offset="1" stop-color="#710F14" />
    </linearGradient>
  </defs>
</svg>